<?xml version="1.0" encoding="iso-8859-1"?>
<!-- Uploaded to: SVG Repo, www.svgrepo.com, Generator: SVG Repo Mixer Tools -->
<svg fill="#000000" height="800px" width="800px" version="1.1" id="Layer_1" xmlns="http://www.w3.org/2000/svg" xmlns:xlink="http://www.w3.org/1999/xlink" 
	 viewBox="0 0 512 512" xml:space="preserve">
<g>
	<g>
		<g>
			<path d="M256,0C114.509,0,0,114.498,0,256c0,141.491,114.498,256,256,256c141.491,0,256-114.497,256-256
				C512,114.51,397.503,0,256,0z M256,478.609c-122.746,0-222.609-99.862-222.609-222.609S133.254,33.391,256,33.391
				S478.609,133.254,478.609,256S378.746,478.609,256,478.609z"/>
			<path d="M256,55.652C145.528,55.652,55.652,145.528,55.652,256S145.528,456.348,256,456.348S456.348,366.472,456.348,256
				S366.472,55.652,256,55.652z M223.912,419.85C147.152,404.845,89.044,337.086,89.044,256c0-92.06,74.897-166.956,166.956-166.956
				c81.086,0,148.845,58.109,163.85,134.869L223.912,419.85z M268.494,422.49L422.49,268.494
				C416.385,350.615,350.615,416.385,268.494,422.49z"/>
			<path d="M336.902,217.817L217.806,336.913c-6.52,6.52-6.52,17.091,0,23.611c6.519,6.519,17.091,6.52,23.611,0l119.096-119.096
				c6.52-6.52,6.52-17.091,0-23.611C353.993,211.297,343.422,211.297,336.902,217.817z"/>
		</g>
	</g>
</g>
</svg>